<svg width="24" height="12" viewBox="0 0 24 12" fill="none" xmlns="http://www.w3.org/2000/svg">
    <path d="M11.95 0.05V2.95H8H4.05V0.05H11.95ZM16 2.95H12.05V0.05H19.95V2.95H16ZM20 3.05H20.05H23.95V5.95H20.05H20H16.05V3.05H20ZM16 6.05H19.95V8.95H16H12.05V6.05H16ZM20 9.05H20.05H23.95V11.95H16.05V9.05H20ZM15.95 9.05V11.95H8.05V9.05H12H15.95ZM7.95 9.05V11.95H0.05V9.05H3.95H4H7.95ZM8 8.95H4.05V6.05H8H11.95V8.95H8ZM4 5.95H3.95H0.05V3.05H3.95H4H7.95V5.95H4ZM8.05 5.95V3.05H12H15.95V5.95H12H8.05Z" fill="white" stroke="black" stroke-width="0.1"/>
</svg>
